HIERARCHY
ROOT hips
{
  OFFSET -0.00735851563513279 12.18665635585785 0.12248523347079754
  CHANNELS 6 Xposition Yposition Zposition Yrotation Xrotation Zrotation
  JOINT spine
  {
    OFFSET 1.0244548320770264e-7 0.5955291986465454 0
    CHANNELS 3 Yrotation Xrotation Zrotation
    JOINT chest
    {
      OFFSET 0 1.2719063864449713 0
      CHANNELS 3 Yrotation Xrotation Zrotation
      JOINT upperChest
      {
        OFFSET 0 1.490802666915459 0
        CHANNELS 3 Yrotation Xrotation Zrotation
        JOINT neck
        {
          OFFSET 0 1.3131953345263365 0
          CHANNELS 3 Yrotation Xrotation Zrotation
          JOINT head
          {
            OFFSET 0 0.8653679716847534 0
            CHANNELS 3 Yrotation Xrotation Zrotation
            JOINT leftEye
            {
              OFFSET 0.20629723300226033 0.6721053123474121 0.3036841657012701
              CHANNELS 3 Yrotation Xrotation Zrotation
              End Site
              {
                OFFSET 0.20629723300226033 0.6721053123474121 0.3036841657012701
              }
            }
            JOINT rightEye
            {
              OFFSET -0.20629652100615203 0.6721066236495972 0.30368443205952644
              CHANNELS 3 Yrotation Xrotation Zrotation
              End Site
              {
                OFFSET -0.20629652100615203 0.6721066236495972 0.30368443205952644
              }
            }
          }
        }
        JOINT leftShoulder
        {
          OFFSET 0.24624172446783632 0.959903359413147 0
          CHANNELS 3 Yrotation Xrotation Zrotation
          JOINT leftUpperArm
          {
            OFFSET 0.9650355761446514 0 0
            CHANNELS 3 Yrotation Xrotation Zrotation
            JOINT leftLowerArm
            {
              OFFSET 2.4419134471639827 0 0
              CHANNELS 3 Yrotation Xrotation Zrotation
              JOINT leftHand
              {
                OFFSET 2.3874557408809456 0 0
                CHANNELS 3 Yrotation Xrotation Zrotation
                JOINT leftIndexProximal
                {
                  OFFSET 0.7029628753662109 0.06118142604827881 0.23586585000157356
                  CHANNELS 3 Yrotation Xrotation Zrotation
                  JOINT leftIndexIntermediate
                  {
                    OFFSET 0.36102771759033203 -0.001475214958190918 0.056637559086084366
                    CHANNELS 3 Yrotation Xrotation Zrotation
                    JOINT leftIndexDistal
                    {
                      OFFSET 0.22344785928726196 -0.007408857345581055 0.02531452476978302
                      CHANNELS 3 Yrotation Xrotation Zrotation
                      End Site
                      {
                        OFFSET 0.22344785928726196 -0.007408857345581055 0.02531452476978302
                      }
                    }
                  }
                }
                JOINT leftLittleProximal
                {
                  OFFSET 0.6958752870559692 0.034375786781311035 -0.29472956992685795
                  CHANNELS 3 Yrotation Xrotation Zrotation
                  JOINT leftLittleIntermediate
                  {
                    OFFSET 0.34538060426712036 -0.0030041933059692383 0.00024324655532836914
                    CHANNELS 3 Yrotation Xrotation Zrotation
                    JOINT leftLittleDistal
                    {
                      OFFSET 0.19865047931671143 0.00746917724609375 -0.010377676226198673
                      CHANNELS 3 Yrotation Xrotation Zrotation
                      End Site
                      {
                        OFFSET 0.19865047931671143 0.00746917724609375 -0.010377676226198673
                      }
                    }
                  }
                }
                JOINT leftMiddleProximal
                {
                  OFFSET 0.7272291779518127 0.09209799766540527 0.05257739871740341
                  CHANNELS 3 Yrotation Xrotation Zrotation
                  JOINT leftMiddleIntermediate
                  {
                    OFFSET 0.40590834617614746 -0.014838695526123047 0.026817932724952698
                    CHANNELS 3 Yrotation Xrotation Zrotation
                    JOINT leftMiddleDistal
                    {
                      OFFSET 0.2495119571685791 -0.026458144187927246 0.010310646146535873
                      CHANNELS 3 Yrotation Xrotation Zrotation
                      End Site
                      {
                        OFFSET 0.2495119571685791 -0.026458144187927246 0.010310646146535873
                      }
                    }
                  }
                }
                JOINT leftRingProximal
                {
                  OFFSET 0.7334893345832825 0.09136629104614258 -0.1205735495314002
                  CHANNELS 3 Yrotation Xrotation Zrotation
                  JOINT leftRingIntermediate
                  {
                    OFFSET 0.3775520920753479 -0.005917906761169434 0.001896639820188284
                    CHANNELS 3 Yrotation Xrotation Zrotation
                    JOINT leftRingDistal
                    {
                      OFFSET 0.2177620530128479 0.007703900337219238 0.0027355607599020004
                      CHANNELS 3 Yrotation Xrotation Zrotation
                      End Site
                      {
                        OFFSET 0.2177620530128479 0.007703900337219238 0.0027355607599020004
                      }
                    }
                  }
                }
                JOINT leftThumbProximal
                {
                  OFFSET 0.02235114574432373 -0.07603192329406738 0.1950724683701992
                  CHANNELS 3 Yrotation Xrotation Zrotation
                  JOINT leftThumbIntermediate
                  {
                    OFFSET 0.3551589846611023 -0.02970755100250244 0.36741212010383606
                    CHANNELS 3 Yrotation Xrotation Zrotation
                    JOINT leftThumbDistal
                    {
                      OFFSET 0.23456048965454102 -0.016631245613098145 0.2093813568353653
                      CHANNELS 3 Yrotation Xrotation Zrotation
                      End Site
                      {
                        OFFSET 0.23456048965454102 -0.016631245613098145 0.2093813568353653
                      }
                    }
                  }
                }
              }
            }
          }
        }
        JOINT rightShoulder
        {
          OFFSET -0.24624088185373694 0.9600239992141724 0
          CHANNELS 3 Yrotation Xrotation Zrotation
          JOINT rightUpperArm
          {
            OFFSET -0.9650300767908009 0 0
            CHANNELS 3 Yrotation Xrotation Zrotation
            JOINT rightLowerArm
            {
              OFFSET -2.4420125187833426 0 0
              CHANNELS 3 Yrotation Xrotation Zrotation
              JOINT rightHand
              {
                OFFSET -2.3874255620910265 0 0
                CHANNELS 3 Yrotation Xrotation Zrotation
                JOINT rightIndexProximal
                {
                  OFFSET -0.7029609084129333 0.06117355823516846 0.23587234504520893
                  CHANNELS 3 Yrotation Xrotation Zrotation
                  JOINT rightIndexIntermediate
                  {
                    OFFSET -0.3610270619392395 -0.0014804601669311523 0.05664427950978279
                    CHANNELS 3 Yrotation Xrotation Zrotation
                    JOINT rightIndexDistal
                    {
                      OFFSET -0.2234485149383545 -0.0074127912521362305 0.025317884981632233
                      CHANNELS 3 Yrotation Xrotation Zrotation
                      End Site
                      {
                        OFFSET -0.2234485149383545 -0.0074127912521362305 0.025317884981632233
                      }
                    }
                  }
                }
                JOINT rightLittleProximal
                {
                  OFFSET -0.6958779096603394 0.034366607666015625 -0.29472311586141586
                  CHANNELS 3 Yrotation Xrotation Zrotation
                  JOINT rightLittleIntermediate
                  {
                    OFFSET -0.3453786373138428 -0.003008127212524414 0.00025422871112823486
                    CHANNELS 3 Yrotation Xrotation Zrotation
                    JOINT rightLittleDistal
                    {
                      OFFSET -0.19865179061889648 0.00746917724609375 -0.010371447540819645
                      CHANNELS 3 Yrotation Xrotation Zrotation
                      End Site
                      {
                        OFFSET -0.19865179061889648 0.00746917724609375 -0.010371447540819645
                      }
                    }
                  }
                }
                JOINT rightMiddleProximal
                {
                  OFFSET -0.7272304892539978 0.09209012985229492 0.05258418060839176
                  CHANNELS 3 Yrotation Xrotation Zrotation
                  JOINT rightMiddleIntermediate
                  {
                    OFFSET -0.4059063792228699 -0.014843940734863281 0.026821313425898552
                    CHANNELS 3 Yrotation Xrotation Zrotation
                    JOINT rightMiddleDistal
                    {
                      OFFSET -0.24951326847076416 -0.026460766792297363 0.010313207283616066
                      CHANNELS 3 Yrotation Xrotation Zrotation
                      End Site
                      {
                        OFFSET -0.24951326847076416 -0.026460766792297363 0.010313207283616066
                      }
                    }
                  }
                }
                JOINT rightRingProximal
                {
                  OFFSET -0.7334906458854675 0.09135580062866211 -0.12056719791144133
                  CHANNELS 3 Yrotation Xrotation Zrotation
                  JOINT rightRingIntermediate
                  {
                    OFFSET -0.37755340337753296 -0.005923151969909668 0.0019026175141334534
                    CHANNELS 3 Yrotation Xrotation Zrotation
                    JOINT rightRingDistal
                    {
                      OFFSET -0.21775943040847778 0.007701277732849121 0.0027383523993194103
                      CHANNELS 3 Yrotation Xrotation Zrotation
                      End Site
                      {
                        OFFSET -0.21775943040847778 0.007701277732849121 0.0027383523993194103
                      }
                    }
                  }
                }
                JOINT rightThumbProximal
                {
                  OFFSET -0.022347867488861084 -0.07603061199188232 0.19507363624870777
                  CHANNELS 3 Yrotation Xrotation Zrotation
                  JOINT rightThumbIntermediate
                  {
                    OFFSET -0.3550455570220947 -0.029461026191711426 0.36754218488931656
                    CHANNELS 3 Yrotation Xrotation Zrotation
                    JOINT rightThumbDistal
                    {
                      OFFSET -0.23451131582260132 -0.016489624977111816 0.20944765955209732
                      CHANNELS 3 Yrotation Xrotation Zrotation
                      End Site
                      {
                        OFFSET -0.23451131582260132 -0.016489624977111816 0.20944765955209732
                      }
                    }
                  }
                }
              }
            }
          }
        }
      }
    }
  }
  JOINT leftUpperLeg
  {
    OFFSET 0.8483456987887621 -0.42556869983673096 0
    CHANNELS 3 Yrotation Xrotation Zrotation
    JOINT leftLowerLeg
    {
      OFFSET 0 -4.6702112872869534 0
      CHANNELS 3 Yrotation Xrotation Zrotation
      JOINT leftFoot
      {
        OFFSET -0.13096565008163452 -5.202569782733917 -0.2985280640423298
        CHANNELS 3 Yrotation Xrotation Zrotation
        JOINT leftToes
        {
          OFFSET 0.01423943042755127 -0.7568342834711075 1.213271364569664
          CHANNELS 3 Yrotation Xrotation Zrotation
          End Site
          {
            OFFSET 0.01423943042755127 -0.7568342834711075 1.213271364569664
          }
        }
      }
    }
  }
  JOINT rightUpperLeg
  {
    OFFSET -0.8483468051999807 -0.42556607723236084 0
    CHANNELS 3 Yrotation Xrotation Zrotation
    JOINT rightLowerLeg
    {
      OFFSET 0 -4.670219469177788 0
      CHANNELS 3 Yrotation Xrotation Zrotation
      JOINT rightFoot
      {
        OFFSET 0.13097601756453514 -5.202573716640472 -0.29853164963424206
        CHANNELS 3 Yrotation Xrotation Zrotation
        JOINT rightToes
        {
          OFFSET -0.014232628047466278 -0.7568355947732925 1.213272675871849
          CHANNELS 3 Yrotation Xrotation Zrotation
          End Site
          {
            OFFSET -0.014232628047466278 -0.7568355947732925 1.213272675871849
          }
        }
      }
    }
  }
}
MOTION
Frames: 5
Frame Time: 0.03333333333333333
-0.7966270935092082 10.973767556401354 0 0 -2.0251039843986507 0 0.0004785240926231205 -0.3612386119961346 -0.037005475798375966 -0.0007564668082290659 -3.262951896140416 -0.010292957264260513 0 0 0 0.20867330914522755 15.423772375529865 2.0017592588742565 -1.4908850069360235e-16 3.179138549998646e-15 8.52746675012793e-18 0 0 0 0 0 0 -8.805302883527949 2.6003110075752334 -13.245124917500815 7.946261824353125 -0.815645303775189 9.195294151797198 -16.52320009587943 1.2187832491613373 4.6211160450061355 6.830675049274999e-15 -8.430954714223212e-14 -2.7292108420924145e-13 -3.6362923013974475 -2.244307238773714 -19.1331992307828 -7.100467301778522 3.6208598726743304 1.8225833510877834 0 0 0 37.98132903795241 3.8571197109621314 -18.213860060837895 -3.9815054993060692 -0.31200055448698594 -2.714025371509236 0 0 0 2.929467282294818 -1.2317410530999424 -10.132729622092112 -1.2464576280603077 0.3777279920650976 3.9817349636119856 0 0 0 18.72395458401292 0.4630544605552466 -17.775593849694907 -4.013708396721781 0.9952396653076988 -3.126586100320959 0 0 0 18.2690869785071 2.1086426759862387 -5.5655315414763 3.7170591655395477 8.635662614087984 -20.580556916942477 0 0 0 8.805302883527949 2.6003110075752334 13.245124917500815 -7.946261824353125 -0.815645303775189 -9.195294151797198 16.52320009587943 1.2187832491613373 -4.6211160450061355 9.849990177518493e-15 7.084188591291005e-14 -2.808736599325184e-13 3.635273235640843 -2.2440197234261947 19.13241602264739 7.10074700779512 3.620750798807948 -1.822804381112586 0 0 0 -37.98306068627806 3.857696460990191 18.21308707412888 3.9815144424260245 -0.31200164840068895 2.714676042683495 0 0 0 -2.929954418445625 -1.2316699600172374 10.13199307278958 1.2463844327030156 0.3777063270880474 -3.9815534479925643 0 0 0 -18.724814804065176 0.46333589488999716 17.77479459089185 4.013885012324447 0.9952023070750878 3.126698833958267 0 0 0 -18.28773932428485 2.122714774290576 5.592006425941941 -3.7121664153589 8.636710981961548 20.57778314378226 0 0 0 0.09665407995941747 -4.0603105466855745 -0.5105063188397388 0.11559570977813503 -7.416729176100153 -0.9239561560503329 -0.10708651067837989 2.9777412374867405 0.470947783884025 0 0 0 -0.08590352774600885 -3.9090356344621635 0.45369579684982736 -0.11951610005394157 -7.690961060386483 0.9238684229969083 0.10848311080319918 3.1005853023841827 -0.46994394483945173 0 0 0
0.061434564896849966 -0.15868077804105027 -0.20046271308134594 1.0485482287386008 5.270483615951835 1.6962686579302888 0.9836165646538969 5.641874852766965 0.4447464677574847 0.3090077450815882 -6.083277813370388 -0.2918470223109876 0 0 0 -12.800462282809214 25.243996955640682 -6.800181864367013 -20.81074344915139 -24.987696272004637 17.198820679278377 0 0 0 0 0 0 -8.805302883527949 2.6003110075752334 -13.245124917500815 -51.57245461022929 23.682754636925388 -79.32232106758553 -55.037283883222074 11.438693513232773 23.32114962845248 1.6958567056610963 -12.264501031988429 3.7394510887404553 -3.6362923013974475 -2.244307238773714 -19.1331992307828 -7.100467301778522 3.6208598726743304 1.8225833510877834 0 0 0 37.98132903795241 3.8571197109621314 -18.213860060837895 -3.9815054993060692 -0.31200055448698594 -2.714025371509236 0 0 0 2.929467282294818 -1.2317410530999424 -10.132729622092112 -1.2464576280603077 0.3777279920650976 3.9817349636119856 0 0 0 18.72395458401292 0.4630544605552466 -17.775593849694907 -4.013708396721781 0.9952396653076988 -3.126586100320959 0 0 0 18.2690869785071 2.1086426759862387 -5.5655315414763 3.7170591655395477 8.635662614087984 -20.580556916942477 0 0 0 8.805302883527949 2.6003110075752334 13.245124917500815 20.15659962103574 18.97947769011751 72.70065249042094 56.94823022849961 12.275845580026274 -24.070695469150472 -1.758940846380992 -12.861728139100569 -3.91515162495317 3.635273235640843 -2.2440197234261947 19.13241602264739 7.10074700779512 3.620750798807948 -1.822804381112586 0 0 0 -37.98306068627806 3.857696460990191 18.21308707412888 3.9815144424260245 -0.31200164840068895 2.714676042683495 0 0 0 -2.929954418445625 -1.2316699600172374 10.13199307278958 1.2463844327030156 0.3777063270880474 -3.9815534479925643 0 0 0 -18.724814804065176 0.46333589488999716 17.77479459089185 4.013885012324447 0.9952023070750878 3.126698833958267 0 0 0 -18.28773932428485 2.122714774290576 5.592006425941941 -3.7121664153589 8.636710981961548 20.57778314378226 0 0 0 -9.115432405389692 -14.84450196058639 4.493551154243815 -0.176795959740347 7.605828635634238 -0.9593201776223226 15.952281902369004 -8.39261502244249 1.9314618532032442 0 0 0 4.737514337816905 -16.40688643279147 0.9651365563591227 0.22946865219141754 10.081386883352218 0.9592966872491144 -15.388011958495662 -9.390501749244677 -2.015028511104753 0 0 0
0.05612067002674145 -0.1606436262069217 -0.1622827852140725 1.1704462215207057 4.820132443117799 1.4765779343280176 1.0687299679198232 5.429527615667061 0.5936704767269301 0.320729624335774 -5.990157290747572 -0.21455041959510152 0 0 0 -12.803536697981194 25.445061547569644 -6.790996898379159 -20.76812982758122 -24.8522838560457 17.23431135184804 0 0 0 0 0 0 -8.805302883527949 2.6003110075752334 -13.245124917500815 -51.15814033750485 23.582333600228104 -79.47269070273363 -54.81965076318062 11.345181545380367 23.2342564260439 1.7102752767876155 -12.399530689704754 3.7792046871559677 -3.6362923013974475 -2.244307238773714 -19.1331992307828 -7.100467301778522 3.6208598726743304 1.8225833510877834 0 0 0 37.98132903795241 3.8571197109621314 -18.213860060837895 -3.9815054993060692 -0.31200055448698594 -2.714025371509236 0 0 0 2.929467282294818 -1.2317410530999424 -10.132729622092112 -1.2464576280603077 0.3777279920650976 3.9817349636119856 0 0 0 18.72395458401292 0.4630544605552466 -17.775593849694907 -4.013708396721781 0.9952396653076988 -3.126586100320959 0 0 0 18.2690869785071 2.1086426759862387 -5.5655315414763 3.7170591655395477 8.635662614087984 -20.580556916942477 0 0 0 8.805302883527949 2.6003110075752334 13.245124917500815 20.027182716067117 18.698314849613272 72.6017470728529 57.457881735737274 12.503636544283735 -24.266521159593484 -1.7922739801656118 -13.18425017642098 -4.009909755135663 3.635273235640843 -2.2440197234261947 19.13241602264739 7.10074700779512 3.620750798807948 -1.822804381112586 0 0 0 -37.98306068627806 3.857696460990191 18.21308707412888 3.9815144424260245 -0.31200164840068895 2.714676042683495 0 0 0 -2.929954418445625 -1.2316699600172374 10.13199307278958 1.2463844327030156 0.3777063270880474 -3.9815534479925643 0 0 0 -18.724814804065176 0.46333589488999716 17.77479459089185 4.013885012324447 0.9952023070750878 3.126698833958267 0 0 0 -18.28773932428485 2.122714774290576 5.592006425941941 -3.7121664153589 8.636710981961548 20.57778314378226 0 0 0 -9.306623609128849 -13.401243185801004 4.571557360309245 -0.15275457724830754 6.289322401309289 -0.9551836097564986 16.01597799926305 -8.07944955244885 1.9038170230734481 0 0 0 4.353454336797294 -15.656124147731232 1.2176655246826802 0.22661485506155213 9.867316896392827 0.9507023885048294 -15.216169438751802 -9.4638392781505 -2.0105482277775804 0 0 0
0.05837407137506216 -0.159649288649211 -0.13245506038903102 1.4468430066358986 4.454535453136992 1.479070417518684 1.0133308754424084 5.216723184332958 0.36109151546167445 0.28434564656405914 -5.968450248056586 -0.05395536018493688 0 0 0 -12.682971479558262 25.740779456832747 -6.4211211024618615 -20.820258284700905 -25.182169055077097 16.969751837318366 0 0 0 0 0 0 -8.805302883527949 2.6003110075752334 -13.245124917500815 -50.48818777333351 23.458457363449643 -79.3172743474561 -54.46805635615763 11.194660752000244 23.093192650886138 1.6396532155690366 -11.745858172512174 3.586594544710694 -3.6362923013974475 -2.244307238773714 -19.1331992307828 -7.100467301778522 3.6208598726743304 1.8225833510877834 0 0 0 37.98132903795241 3.8571197109621314 -18.213860060837895 -3.9815054993060692 -0.31200055448698594 -2.714025371509236 0 0 0 2.929467282294818 -1.2317410530999424 -10.132729622092112 -1.2464576280603077 0.3777279920650976 3.9817349636119856 0 0 0 18.72395458401292 0.4630544605552466 -17.775593849694907 -4.013708396721781 0.9952396653076988 -3.126586100320959 0 0 0 18.2690869785071 2.1086426759862387 -5.5655315414763 3.7170591655395477 8.635662614087984 -20.580556916942477 0 0 0 8.805302883527949 2.6003110075752334 13.245124917500815 19.762793262825536 18.31112499323959 72.73294800404172 57.86026670482238 12.684731072409676 -24.419830376547576 -1.816759810181485 -13.424361297988465 -4.080400585301735 3.635273235640843 -2.2440197234261947 19.13241602264739 7.10074700779512 3.620750798807948 -1.822804381112586 0 0 0 -37.98306068627806 3.857696460990191 18.21308707412888 3.9815144424260245 -0.31200164840068895 2.714676042683495 0 0 0 -2.929954418445625 -1.2316699600172374 10.13199307278958 1.2463844327030156 0.3777063270880474 -3.9815534479925643 0 0 0 -18.724814804065176 0.46333589488999716 17.77479459089185 4.013885012324447 0.9952023070750878 3.126698833958267 0 0 0 -18.28773932428485 2.122714774290576 5.592006425941941 -3.7121664153589 8.636710981961548 20.57778314378226 0 0 0 -8.775582501434933 -12.658825829503424 4.530105300272414 -0.13863008255642786 5.694622771637244 -0.9518954422827016 15.310923892397271 -7.798478250214993 1.8266576679408697 0 0 0 4.190102159922361 -15.100642324114965 1.249543129796792 0.22923072962783975 9.841103501805643 0.9547888797646659 -15.375339232175424 -9.587468807938635 -2.0337941249085976 0 0 0
0.07178084088696127 -0.15720864191664666 -0.10377810695513134 1.5835469894055412 4.159968318115489 1.778415577917592 1.1101099015930507 4.936940348014759 -0.2099738826671242 0.3004822960933786 -6.061874415853753 0.024635619291790513 0 0 0 -12.706238923335086 25.827190301646922 -6.460453561616729 -20.75152419959352 -24.87093780234446 16.86750701345182 0 0 0 0 0 0 -8.805302883527949 2.6003110075752334 -13.245124917500815 -49.851373715920325 23.630309062610078 -79.23636146553368 -54.547841064745285 11.228609222853562 23.125294809654385 1.47142771311176 -10.260925095386476 3.147303648925067 -3.6362923013974475 -2.244307238773714 -19.1331992307828 -7.100467301778522 3.6208598726743304 1.8225833510877834 0 0 0 37.98132903795241 3.8571197109621314 -18.213860060837895 -3.9815054993060692 -0.31200055448698594 -2.714025371509236 0 0 0 2.929467282294818 -1.2317410530999424 -10.132729622092112 -1.2464576280603077 0.3777279920650976 3.9817349636119856 0 0 0 18.72395458401292 0.4630544605552466 -17.775593849694907 -4.013708396721781 0.9952396653076988 -3.126586100320959 0 0 0 18.2690869785071 2.1086426759862387 -5.5655315414763 3.7170591655395477 8.635662614087984 -20.580556916942477 0 0 0 8.805302883527949 2.6003110075752334 13.245124917500815 19.687044355700838 18.12628369464854 73.01716665589707 58.10242579367851 12.794277596617716 -24.511614177820054 -1.8505776818359962 -13.760613521805213 -4.179044818491043 3.635273235640843 -2.2440197234261947 19.13241602264739 7.10074700779512 3.620750798807948 -1.822804381112586 0 0 0 -37.98306068627806 3.857696460990191 18.21308707412888 3.9815144424260245 -0.31200164840068895 2.714676042683495 0 0 0 -2.929954418445625 -1.2316699600172374 10.13199307278958 1.2463844327030156 0.3777063270880474 -3.9815534479925643 0 0 0 -18.724814804065176 0.46333589488999716 17.77479459089185 4.013885012324447 0.9952023070750878 3.126698833958267 0 0 0 -18.28773932428485 2.122714774290576 5.592006425941941 -3.7121664153589 8.636710981961548 20.57778314378226 0 0 0 -8.176132716985848 -11.960045412584709 4.053739175988329 -0.12279519609118235 4.9437223081582955 -0.9485927070473124 14.889108910081996 -7.563741604064192 1.7555648452617694 0 0 0 4.281478446517073 -14.731104346314977 0.8412950940028201 0.23818791229242445 10.050210427483709 0.9558914150242642 -15.443339356012421 -9.962730510556808 -2.0547620084900817 0 0 0
